<?xml version="1.0" encoding="utf-8"?>
<!-- Generator: Adobe Illustrator 26.0.0, SVG Export Plug-In . SVG Version: 6.00 Build 0)  -->
<svg version="1.1" id="Layer_1" xmlns="http://www.w3.org/2000/svg" xmlns:xlink="http://www.w3.org/1999/xlink" x="0px" y="0px"
	 viewBox="0 0 859.9 730.2" style="enable-background:new 0 0 859.9 730.2;" xml:space="preserve">
<style type="text/css">
	.st0{fill:#FFFFFF;}
	.st1{fill:#B72028;stroke:#FFFFFF;stroke-width:0.9;stroke-miterlimit:10;}
	.st2{fill:none;stroke:#FFFFFF;stroke-width:2.25;stroke-linecap:round;stroke-linejoin:round;stroke-miterlimit:10;}
	.st3{fill:none;stroke:#FFFFFF;stroke-width:1.8;stroke-linecap:round;stroke-linejoin:round;stroke-miterlimit:10;}
	.st4{fill:none;stroke:#FFFFFF;stroke-width:2.7;stroke-linecap:round;stroke-linejoin:round;stroke-miterlimit:10;}
	.st5{fill:none;stroke:#FFFFFF;stroke-width:2.25;stroke-linecap:round;stroke-miterlimit:10;}
</style>
<g>
	<path class="st0" d="M347.8,251.4c0,12.7-2.4,23.2-7.2,31.6c-5.3,9.3-12.4,13.9-21.4,13.9h-34.9V66.4H319c9,0,16.1,4.5,21.4,13.6
		c4.9,8.3,7.4,19,7.4,31.9V251.4z M320,255.3V107.9c0-5.5-0.9-9.1-2.8-10.9c-1-0.9-2.8-1.3-5.5-1.3v171.9c2.9,0,4.7-0.3,5.5-1
		C319.1,264.8,320,261.1,320,255.3z"/>
	<path class="st0" d="M423.9,296.9h-27.2L392,235h-12.7l-4.8,61.9h-27.2L368,66.4h35.2L423.9,296.9z M389.6,203.4l-4.1-69.2
		l-3.9,69.2H389.6z"/>
	<path class="st0" d="M523.1,296.9h-27.5V186.2h-7.7v110.6h-27.5V66.4h27.5v91.5h7.7V66.4h27.5V296.9z"/>
	<path class="st0" d="M600.6,296.9h-27.2l-4.8-61.9h-12.7l-4.8,61.9h-27.2l20.7-230.5h35.2L600.6,296.9z M566.2,203.4l-4.1-69.2
		l-3.9,69.2H566.2z"/>
</g>
<g>
	<path class="st1" d="M119.8,277.2v1.5C120.6,277.9,120.7,277.4,119.8,277.2z"/>
	<path class="st0" d="M112,285.2v-10.5c-0.3-0.3-0.4-0.7,0-1v-87.4h7.7v84.5c14.8-6.5,20.2-17.6,22.9-21c2.1-2.6,3.4-6.3,4.7-10.4
		V66.4h-27.5v91.5H112V66.4H84.5v230.5h15.4C104.2,292,108.5,288.1,112,285.2z"/>
</g>
<path class="st0" d="M718.5,256c4.6-16.1,8.7-11.6,14-3.3c2.8,4.4-4.2,19.9-0.9,22c5.1,3.1,9.4,6.1,13.1,9v-97.8
	c2.8,0,4.9,0.6,6.5,1.8c1.6,1.2,2.3,4.7,2.3,10.4v56.6c0,11.9,0.3,21,0.9,27.5c0.5,5.6,1.4,10,2.6,13.2c0.4,0.5,0.8,1,1.2,1.5h27
	c-1.9-2.6-3.3-10.4-4.1-23.4c-0.2-4.2-0.5-10.3-0.7-18.5v-49.8c0-8.1-0.8-14.5-2.5-19.1c-2.6-7-7.4-12.2-14.5-15.5
	c7.6-4.6,12.6-10.7,15-18.4c1.3-4.1,2-10,2-17.7V107c0-12.2-2.6-22.1-7.6-29.5c-5.1-7.4-12.2-11.1-21.3-11.1h-34.2V256
	C717.7,256.8,718.2,257,718.5,256z M744.6,95.7c2.8,0,4.9,0.6,6.5,1.8c1.6,1.2,2.3,4.6,2.3,10.3v37.7c0,5.7-1.1,9.4-3.2,11.1
	c-0.9,0.7-2.8,1-5.6,1V95.7z"/>
<g>
	<path class="st2" d="M431.6,386.2c-0.4,2.7-0.6,5.7,0.9,7.9s5.7,2.6,6.6,0.1c-0.2,6.1,6.3,11.5,12.3,10.2c-1.9-1.8-2.9-4.6-2.6-7.2
		c0.9,0.1,1.7,0.3,2.6,0.4c1.2-2.9,2-5.8,2.6-8.9c2.7,4.5,7.9,7.4,13.2,7.2c-1,1.5-3.2-0.2-4.1-1.8c-1.3-2.2-2.5-4.4-3.8-6.6
		c-0.5-0.8-1-1.7-1.1-2.7c-0.3-3,3.2-4.8,6.1-5.7c0.6,4.5,6.3,7.4,10.3,5.3c-2.2-1.8-5.3-2-7.4-3.8c-1.9-1.7-2.5-4.7-2-7.2
		c0.5-2.6,1.8-4.9,3.1-7.2c-1.4-2.7-2.9-5.5-4.3-8.2c1.9,1.5,4.5-1.5,3.8-3.8c-0.7-2.3-3-3.7-4.6-5.5c-2.6-2.8-3.7-7-2.8-10.7
		c0.5-2.3,1.8-4.6,1.2-6.9c-0.4-1.6-1.6-2.9-2.7-4.1c-3.4-3.6-6.8-7.1-10.2-10.7c-0.8-0.8-1.5-1.6-1.9-2.7c-0.5-1.3-0.2-2.7-0.7-4
		c-0.8-1.8-2.9-2.6-4.8-3.2c-4.5-1.4-8.9-2.8-13.4-4.2c-2.9-0.9-5.9-1.8-8.9-1.8c-3,0-6.2,1.1-8,3.5l-1.3-1.4
		c0.4,0.3-0.2,0.9-0.6,0.8c-0.5-0.1-0.8-0.5-1.1-0.9c-1.7-1.6-4.6-0.7-6,1.1c-1.3,1.9-1.5,4.3-1.5,6.6c-1.9-0.5-3.9-0.3-5.7,0.6
		c-2,1.1-3.5,3-4.8,4.8c-2,2.7-4.1,5.7-4.2,9c0,1.3,0.2,2.7,0.1,4c-0.3,2.5-2.1,4.7-1.9,7.2c0.2,2.5,2.3,4.4,3.7,6.5
		c3.6,5.3,2.6,13.1-2.1,17.4c3.9,2.2,10.5,2.3,11.4-2.1"/>
	<path class="st2" d="M396.6,358.2c1.4,3.7,2.7,5.7,0,8.6c-1.4,1.5-3.4,2.2-4.9,3.5c-1.5,1.3-2.3,4.1-0.6,5.2
		c0.9,0.6,2.1,0.5,3.2,0.6c1.1,0.1,2.4,0.7,2.5,1.7c0.2,1.5-1.9,2.2-3.3,1.8c-1.5-0.3-3-1.1-4.3-0.4c1.4,1.6,3.4,2.6,5.5,2.7
		c0.4,1.1-1.4,1.2-2.5,1.7c-1.4,0.6-1.7,2.7-0.8,4c0.9,1.3,2.4,1.9,3.9,2.4s3.9,2,6.5-1.9c1-1.5,0.4,6.7,2.1,6.2
		c0.6-0.2,1.1-0.7,1.5-1.2c0.8-1.1,1.3-2.5,1.5-3.9c-0.4,2.9-1.8,5.7-3.9,7.8c-0.4,0.4-0.7,0.7-0.9,1.2c-0.2,0.9,0.6,1.8,1.5,2
		c0.9,0.2,1.8,0,2.7-0.3c2-0.6,4-1.1,5.7-2.3s3-3.1,3-5.2"/>
	<path class="st2" d="M409.1,303.8c-1.7,2.6-3.5,5.2-5.3,7.7c2-0.9,4.7-1.5,6,0.2c0.7,0.9,0.6,2.2,0.3,3.3c-0.8,3.3-3.1,6.5-2.5,9.9
		c0.3,1.8,1.4,3.4,1.7,5.2c0.2,1.1,0.1,2.3,0.3,3.5c0.5,2.7,4.2,6,6.9,6.7"/>
	<path class="st2" d="M430.1,386.2c-1.1,3.5-2.8,7.5-6.3,8.3c1.1-2.6,2.6-4.9,4.5-7"/>
	<path class="st2" d="M416,339.9c1.4,1,3.2-0.1,4.8-0.8c1.5-0.6,3.2-0.7,4.8-0.4c-1.7,0.7-2.6,2.9-1.8,4.6"/>
	<path class="st2" d="M425.4,341.8c-1.3,3.3-1.7,6.9-1,10.4c0.2,0.9,0.4,2-0.2,2.7c-0.5,0.7-1.4,0.8-2.2,1.1c-2,0.9-2.5,3.5-2.2,5.7
		c1.3,10.4,11.7,3.9,13.1,5.6c-2.1,0.4-4.5,1.1-5.3,3c-0.9,2,0.4,4.2,1.8,5.8c1.4,1.6,3.2,3,3.8,5.1c0.6,2.1-12.2,11.9-13.7,13.5
		c-1.5,1.7-1.3-4.6-3.2-3.5c-2.4,1.4,0,5.8-2.4,4.4"/>
	<path class="st2" d="M466.2,379.9c1.9,0.6,9.5-0.5,21.7,9.5c0.8,0.6,2.1-0.1,3,0.4s1.5,1.6,1,2.5"/>
	<path class="st2" d="M387.7,385.8c0.3-0.8-1.1-0.8-1.8-0.4c-7.5,5-14.2,10.4-17.4,20.5c-0.5,1.4-1.5,2.6-1.9,4.1
		c-0.4,1.5-0.4,3.1-0.5,4.6c-0.2,3.9-1.1,7.7-2.6,11.3c-0.9,2.3-2,5.3-0.2,7.1"/>
	<path class="st2" d="M376.4,430.8c5.5-0.5,11.2,0.3,16.3,2.4c1.6,0.7,3.2,1.5,4.4,2.8c1.2,1.3,1.9,3.1,1.4,4.8"/>
	<path class="st2" d="M390.5,416.6c3.1,2.1,4.3,6.1,5.1,9.7c2.8,12.9,3.7,26.3,2.8,39.5"/>
	<path class="st2" d="M389.9,473.7c2.9-2.2,6.1-4.4,9.7-4.4c0.9,0,1.8,0.1,2.7,0.2c4.3,0.4,8.7-0.4,13-1.2"/>
	<path class="st2" d="M502.9,419.8c-0.6-0.4-1.2,0.1-1.8-0.2c0.4,1.3,3.3,3.6,1.3,13.4"/>
	<path class="st2" d="M494.8,430.7c0.2,5.9,0.7,11.9,1.3,17.8"/>
	<path class="st2" d="M464.3,464.2c1.5,0.9,7.1,1.1,8.7,0.4c1.6-0.6,2.6-2.7,1.6-4.1c-0.9-1.2-2.6-1.2-4.1-0.8
		c-1.4,0.4-2.8,1.1-4.3,0.9c-1.3-0.1-2.4-1-3.6-1.6c-4-1.9-8.7-1.2-13-0.4c-4.1,0.7-8.2,1.5-12.2,2.2c-8.3,1.5-14.7,4.6-21.8,7.4"/>
	<path class="st2" d="M458.5,462c2.8,0.8,5.2,2.4,7.8,3.7c2.6,1.3,5.5,2.3,8.3,1.8c-0.2,3.2-3.7,5.1-6.7,6.2"/>
	<path class="st2" d="M475.2,462.9c20.3-11.3,30-16.1,46.7-21c-0.2-3.7,2.4-2.7,1.5-3.5c3.3,0.4,2.4,2.4,0.8,4.1
		c-18.3,5.9-35.7,14.5-51.4,25.5"/>
	<path class="st2" d="M511.1,482.6c8.8-17.3,14.5-28.7,18.5-34.8c-0.4,0.4,1-1.9,0.6-1.6"/>
	<path class="st2" d="M540.1,433.9c0.7-2.3,1.5-4.5,2.2-6.8c0.2-0.7,0.8-1.5,1.4-1.2c0.2,0.1,0.3,0.3,0.4,0.5
		c0.7,1.3,0.6,2.9-0.2,4.1c-0.8,1.2-2.4,1.8-3.8,1.6"/>
	<path class="st2" d="M522.1,439.4c0.6-0.6,1.6,0.2,1.5,1c-0.1,0.8-0.8,1.4-1.4,1.8"/>
	<path class="st2" d="M530.6,451.2c-7.9,10.2-14.6,21.5-19.7,33.4"/>
	<path class="st2" d="M529.8,450.6c-5.1,9.7-10.2,19.5-15.3,29.2c-0.9,1.6-1.7,3.3-2.2,5.1"/>
	<path class="st2" d="M515.5,480c0.6,0.2,1.3,0.3,1.9,0.5c2.7,1.8,3,6.4,0.5,8.5c-2.5,2.2-7,1.2-8.3-1.8c1.4,1.5,3.4,2.4,5.4,2.4
		c0.6,0,1.3,0.1,1.5,0.6c0.1,0.2,0.1,0.5,0.1,0.7c-0.2,2.4-0.9,5.3-3.3,5.8c-0.9,0.2-1.8-0.1-2.7-0.4c-2.8-1-5.5-2.4-7.9-4.2
		c3.2,2.4,7.1,3.7,11.1,3.8c-0.7,1.1,0,2.9-1,3.6c-0.4,0.3-0.8,0.3-1.3,0.3c-3.8,0.2-8.2,0.2-10.6-2.8c2.9,1.6,7.1,2,9.2,4.9
		c-3.1,0.7-6.5,0.2-9.3-1.3c-1.4-0.8-2.8-2-2.9-3.6c-0.1-1.6,1.8-3.2,3.1-2.2c-0.8-1.1-0.2-2.9,1-3.3c0.4-0.1,0.8-0.2,1-0.4
		c0.5-0.5,0.3-1.4,0.5-2.1c0.5-1.4,3.6-1.4,4.6-0.3"/>
	<path class="st2" d="M508.4,480.1c-3.5-1.4-6.4-2.2-9.7-0.4c-0.9,0.5-1.7,1.3-2.5,2.1c-1.5,1.6-1.7,0-2.8,1.9"/>
	<path class="st2" d="M497.6,490.2c2.1,0.5,3.3,0,5.2-1c1.3-0.7,2.4-1.7,3.4-2.7c2.1-2,4.1-4,5.9-6.2c0.6-0.7,3.1-6.2,2.7-7
		c-3.5-1.1-2.4,2.6-6.4,6.2"/>
	<path class="st2" d="M496.3,456.2c0.6,6.2,1.3,12.4,1.9,18.5c-3.4-1.7-7.9-0.7-10.4,2.2c4-1.8,7.7-1.7,12-2.3
		c2.3,0.6,3.2,3.7,6.8,4.8"/>
	<path class="st2" d="M397.7,488.1c12.7-12.4,21.9-14.3,34.8-16.5c14.7-2.5,27.8-0.4,40.3,7.6c3.7,2.4,8.7,8.7,8.3,13.1
		c-5.7-2-11-6.7-16.6-9.1c-19.2-8.7-42.3-5.9-58.1,8.1c-3.9,3.5-8.5,8.4-7.3,13.5c-3.5-3.3-3.7-10.1-2.1-14.4"/>
	<path class="st2" d="M490.1,513.9c14.7-2.5,29.1,0,34.2,2.3c2.6,1.2,2.7,11.1,0.3,10.1c-8.1-3.6-29.1-2.2-41.5,1.1"/>
	<path class="st2" d="M398.4,506c-0.4,0.3-0.4-0.8,0.1-0.7c0.5,0.1,0.6,0.7,0.7,1.1c0.9,8.8,0.9,17.8,0.1,26.6
		c-0.5-4.5,7.2-10.2,17.3-14c12.7-4.7,41.5-2.6,49.8,0.7c4.6,1.8,9.6,6.5,10.2,11.4c0.6,5.2-2,16.3-20.7,19.9
		c-13.7,2.6-25.8,2.9-40.4-0.7c-7.2-1.7-16.8-6-16.7-12.3c0-1.1,1.6-8.6,4.2-10.5"/>
	<path class="st3" d="M372.3,483.7c-2.9,4.5-4.7,9.7-5.2,15c3.9-4.5,5.6-10.7,4.6-16.5c-0.3,0.9-0.6,1.8-0.9,2.7"/>
	<path class="st3" d="M369.2,508c-0.1-1-1.6-1.3-2.4-0.8c-0.9,0.6-1.2,1.6-1.5,2.6c-0.9,2.9-1.9,5.9-1.7,9c1.4,0.3,2.1-1.6,2.3-3
		c0.2-2.1,0.4-4.2,0.6-6.4"/>
	<path class="st3" d="M378.5,524.4c-0.9,0.6-1.2,1.6-1.5,2.6c-0.9,2.9-1.9,5.9-1.7,9c1.4,0.3,2.1-1.6,2.3-3c0.2-2.1,0.4-4.2,0.6-6.4
		"/>
	<path class="st3" d="M384.2,500.1c-0.9,0.6-1.3,1.7-1.7,2.8c-1.4,4.2-2.2,8.6-2.4,13.1c2.8-4.5,4.1-9.9,3.6-15.2"/>
	<path class="st3" d="M407.2,498.6c-1.3,5.2-1.5,10.7-0.4,15.9c2.3-5.4,2.1-11.9-0.6-17.2c0,1,0,1.9,0,2.9"/>
	<path class="st3" d="M457.7,555.2c-0.8,5.3-0.4,10.8,1.2,15.9c1.7-5.6,0.9-12.1-2.4-17c0.1,1,0.2,1.9,0.3,2.9"/>
	<path class="st3" d="M419.6,493.4c-0.4-0.9-1.9-0.8-2.6,0c-0.6,0.8-0.7,1.9-0.7,2.9c0,3.1,0,6.2,1.1,9.1c1.4-0.2,1.5-2.2,1.2-3.6
		c-0.4-2.1-0.9-4.2-1.3-6.3"/>
	<path class="st3" d="M465.2,495.2c-0.8-0.8-2.2-0.4-2.9,0.6s-0.6,2.1-0.6,3.2c0.2,4.4,1,8.9,2.5,13.1c1-5.2,0.3-10.7-2-15.5"/>
	<path class="st2" d="M389.6,492.4c-5.9-9.6-14.9-17-24.9-22.1s-21.1-7.9-32.2-9.6c-8.2-1.2-16.6-1.8-24.6,0.1s-15.7,6.6-19.6,13.9
		c0.4-8.3,5-16.3,12-20.9c9.6-6.3,22-5.9,33.4-4.7c26.1,2.6,48.4,16.5,57.3,30.9c0.8,1.2,1.5,2.5,1.7,3.9c0.5,3.9-3,7.2-3.6,11.1"/>
	<path class="st2" d="M285.6,482.2c-4.7,10.6-5.6,18-8,29.3c8.1-8.2,20.4-11.2,32-10.2c11.5,1,22.4,5.5,32.9,10.3
		c6.3,2.9,12.6,5.9,17.9,10.4c5.3,4.4,9.6,10.4,10.7,17.3c0.3,1.6,0.3,3.2-0.3,4.7c-1.2,2.7-4.3,3.9-7.2,4.5
		c-23.1,5.6-47.8-2.3-67.2-16c-8.6-6.1-16.7-13.8-19.6-23.9"/>
	<path class="st3" d="M325.7,461.1c-1.6,1.3-1.9,3.7-2.2,5.7c-0.5,3.9-1.4,7.7-2.6,11.4c2.2-0.7,2.6-3.7,3.8-5.8
		c0.8-1.4,2.2-2.5,2.6-4c0.8-2.9-1.8-6.1-0.3-8.7c-1.7,6-2,12.3-1.1,18.5c-1.5-0.1-3-0.3-4.5-0.4c-0.4,0-0.8-0.1-1.1,0.2
		c-0.3,0.2-0.5,0.7-0.5,1.1c-0.8,3.6-1.3,7.4-2.9,10.8c-1.2,2.6-3,5.1-2.8,7.9c1.9-1.2,4-2.4,5-4.4c0.7-1.3,0.9-2.8,1.2-4.3
		c0.4-2.8,0.8-5.6,1.3-8.4"/>
	<path class="st3" d="M294.3,469c0.9,1.9,1.3,4,1.4,6.1c0,1.8-0.4,3.7-1.8,4.7c-0.7,0.5-1.5,0.7-2.2,1.1c-1.4,0.7-2.5,2-3.1,3.4
		c-1.5-4.8-0.6-10.2,2.2-14.3"/>
	<path class="st3" d="M288.1,487.2c-0.8,2.1-1.4,4.2-1.7,6.5c-0.3,2.8-0.1,5.6-0.7,8.3c-0.6,2.7-2.1,5.4-4.7,6.5
		c-0.2-2.7-0.4-5.5-0.6-8.2"/>
	<path class="st2" d="M284,511.6c2.8,6.9,9.3,11.6,15.6,15.6c9.2,6,18.8,11.8,29.5,14c11.2,2.3,23.1,2.6,34.4,0.7"/>
	<path class="st4" d="M485.1,502.2c-0.8-0.7-1.9-1-3-0.8c-0.5,0.1-1.2,0.4-1.6,0c-0.3-0.2-0.4-0.5-0.5-0.8c-0.6-1.8-1.1-3.7-1.7-5.5
		c3,9.2,6,18.4,8.9,27.7c-3.6,1.3-6.5,4.3-7.7,7.8c0.1-1.6,0.3-3.3,0.4-4.9c-0.3,2-0.1,4,0.6,5.9c1-1.2,1.1-2.9,1.2-4.4
		c0.1-2.7,0.2-5.5,0.3-8.2c0-0.9,0.1-1.8-0.1-2.6c-0.3-1.2-1-2.2-1.7-3.1c-4.1-5.7-7.9-12.5-6.4-19.3c1.9,8.1,3.3,16.2,4.3,24.4"/>
	<path class="st2" d="M526.4,382c-22.5,4.8-38.5,9.2-53,22c-2.2,1.9-4.4,4.5-4,7.4c0.4,2.5,2.7,4.1,5,5.1c4,1.8,8.5,2.2,12.9,2.5
		c11.4,0.8,22.9-0.2,34.3-1.3c1.9-0.2,4-0.5,5.4-1.9"/>
	<path class="st2" d="M525.1,382.7c18-3.6,36.3-7.2,54.5-5.4c4.7,0.5,10,1.7,12.2,5.8c0.6,1.1,0.9,2.4,0.6,3.6
		c-0.4,1.5-5.3,8.1-6.6,8.9c-17.3,10.2-30.9,15.1-50.3,19"/>
	<path class="st2" d="M523.6,381c-0.1-1.7-1.7-3.4-3.4-3c-1.7,0.3-2.3,3.1-0.8,3.9c0.5,0.2,1,0.3,1.5,0.3c1.8,0.1,3.7,0.1,5.5,0.2
		c-1.4-1.9-2-4.5-1.4-6.9c-0.2-0.2,0-0.6,0.3-0.6c0.3,0,0.5,0.3,0.7,0.5c1.3,2,1.9,4.5,1.6,6.8c-0.8-1.6-0.4-3.6,0.9-4.8
		c1.3-1.2,3.3-1.5,4.9-0.7c-1.2,3.1-4.5,5.3-7.8,5.2"/>
	<path class="st2" d="M528.4,400.1c3.2,9.6,5.9,19.4,8.2,29.2c-3-9.1-3.9-18.8-4.7-28.4c2.7,10.8,5.4,21.6,8.1,32.5
		c-3-0.6-6.7-1-8.4,1.5c-1.7,2.4-0.4,5.7,1,8.3c0.9,1.7,1.8,3.4,3.3,4.6c1.5,1.2,3.7,1.7,5.3,0.7c0.9-0.6,1.5-1.5,2.1-2.5
		c1.5-2.6,3-5.7,1.7-8.4c-0.9-1.8-2.7-2.8-4.5-3.7c-1.9-0.9-4.2-1.8-6.1-0.9c-0.9,0.4-1.5,1.2-2.1,2c-2.7,4.2-1.5,10.5,2.7,13.4
		c1.6,1.1,3.8,1.7,5.3,0.4c0.7-0.6,1.1-1.5,1.4-2.4c0.9-2.4,1.6-4.8,2.3-7.3"/>
	<path class="st2" d="M539.7,437.8c-3.5,0.3-6.1,4.6-4.6,7.8c0.3-1.1,0-2.2-0.7-3.1c-0.4,1.3,0.7,2.8,2.1,3"/>
	<path class="st2" d="M538.4,447.6c-0.4,4.8,0,9.7,0.4,14.5c1.1,13.3,2.4,32.5,3.5,45.8c-0.3-8-3.6-21.4-5.8-29.1
		c-2.7-9.3-4.4-19-4.9-28.7c2.9,14.1,3.6,28.5,4.3,42.9c0.3,5.9,0.5,11.8,0.8,17.7"/>
	<path class="st2" d="M543.6,474.7c6.8-1.1,13.7-2.8,20.5-4c2.8-0.5,5.6-0.6,8.5-0.8c3.6-0.3,7.2-0.3,10.8-0.3
		c8.9,0,14.9-0.2,26.8,1c4.5,0.5,9.2,0.1,13.5,1.7c-8.1,1.9-16.5,1.7-24.7,2.6c-20.4,2-37.1,3-57.9,6.4c13.9,5.3,24.1,7.9,38.9,6.6
		c6.2-0.5,15.2-3.9,20.9-6.2c7.3-3,11.3-5.8,18.7-8.8"/>
	<path class="st2" d="M576.1,489.6c-2.7,0.5-5,2.4-6.1,5c-0.1,0.3-0.2,0.6-0.1,1c0.1,0.4,0.4,0.6,0.7,0.8c1.5,0.8,3.4,0.9,4.9,0.1
		c0.3-0.1,0.6-0.3,0.7-0.6c0.3-0.5,0-1.3-0.5-1.6c-0.5-0.4-1.1-0.6-1.7-0.8c-1-0.6-1.8-1.6-2-2.7c1.4,9,2.8,17.9,4.2,26.9
		c-0.4-6.9,0-13.9,1.1-20.7c0.9,6.7,1.8,13.4,2.7,20.2c-0.3-0.6-0.6-1.2-1-1.8"/>
	<path class="st2" d="M572,466.3c-1-0.6-2.4-0.7-3.4-0.1c1.4-0.6,2.7-1.6,3.4-3c-0.2-0.4-0.3-0.8-0.5-1.2c-1.1,0.5-2.4,0.3-3.6,0
		c-1.2-0.2-2.5-0.4-3.5,0.2c-1,0.7-1.2,2.5-0.1,3c0.4,0.2,0.8,0.1,1.2,0.1c2.2-0.1,4.5,0.1,6.7,0.6c0.7,0.2,1.5,0.4,2,1
		s0.4,1.6-0.2,1.9c0.3-1.7,0.6-3.4,0.9-5c0.1-0.7,0.3-1.4,0.7-1.8c0.5-0.4,1.1-0.6,1.8-0.7c2-0.3,3.9-0.7,5.9-1
		c-1.6,0.7-3.1,1.5-4.7,2.2c-1.7,0.8-3.4,1.6-4.7,2.9c-1.3,1.3-2.1,3.3-1.6,5.1c-1.1-1.4-1.6-3.3-1.2-5c0,0.8-0.1,1.6-0.4,2.3"/>
	<path class="st2" d="M570.8,406.4c-0.1-0.4-0.3-0.8-0.4-1.2"/>
	<path class="st2" d="M572.8,460.2c-0.1,0-0.3,0-0.4,0"/>
	<path class="st2" d="M572.8,459.3c-0.8,0.9-1.4,2-1.7,3.2c-1.1,0.7-2.5-0.8-2.5-2.2c0-1.4,0.6-2.7,0.3-4c1.4-1.1,3.7,0.1,4.1,1.9
		c0.5,1.7-0.2,3.5-0.9,5.2c-2.1-2.8-1.7-6.6-1.4-10.1c0.7-7.1,0.7-14.4,0.1-21.5c-0.7-8.4-2.4-16.8-1.1-25.1
		c1.5,0.6,1.8,2.6,1.9,4.2c0.8,17.1,1.7,34.1,2.5,51.2"/>
	<path class="st2" d="M376.2,430.5c-4.6,0.9-7.8,3-12,5c-0.3-1.7-1-3.3-2-4.7"/>
	<path class="st2" d="M368.3,436.6c0,0.1,0.1,0.2,0.1,0.3c2.8,8.4,2.7,13.3,2.8,22.2"/>
	<path class="st2" d="M413.6,482.4"/>
	<path class="st2" d="M478.8,418.6c-0.5,6.7-1.1,13.4,0,20c0.2,1.5,0.6,3.1,0.6,4.6c0.1,1.8-0.2,3.7-0.4,5.5
		c-0.5,3.7-1.1,7.4-1.6,11"/>
	<path class="st2" d="M479.9,465.5c-1.4,5-0.9,10.2-0.4,15.3c0.2,2.6,0.5,5.1,0.7,7.7"/>
	<path class="st2" d="M523.2,528.2c4.6,15.9,6.9,29.7,7,46.2c-3-2-10.7-3-17.5-3.4c-14.6-0.8-27.5,2.1-42,3.8
		c-4.4,0.5-17,3.8-15.2,9c2.9,4.6,41.1,0.8,68-4.2c1.4-0.2,6-2.5,6.5-3.8"/>
	<path class="st3" d="M478.2,545c0.2,8.5,0.5,17,1,25.6c-1.3,0.5-2.3-1.2-2.7-2.5c-1.2-4.5-1.8-9.1-1.7-13.7
		c0.1-2.6,0.8-5.7,3.2-6.6"/>
	<path class="st2" d="M270.8,622.2c6.8-29.2,33.2-65.4,80.8-66.1c51.2-0.7,77.1,35,87.1,52.2c10.4,17.9,13.1,38.8,11.2,59.3"/>
	<path class="st2" d="M470.3,661.8c-0.6-20.2-4-36.2-10.7-52.6c-7.3-18-28.3-52.5-97.4-54.2c32.8-1.7,51.4,10.8,56.5,13.5
		c31.4,16.8,51.5,57.5,49.5,105.3"/>
	<path class="st2" d="M275.8,624.4c10.4-37,29.5-53.8,59.9-61.1c37.9-9.1,63.7,7.7,77.2,19.5c15.9,13.8,32.4,41.7,33.2,66.9"/>
	<polyline class="st2" points="538.1,521.3 541.8,650.7 542.7,645.6 	"/>
	<path class="st2" d="M545.6,548.3c0.4,32.9,0.6,64.3,4.1,97c0,0.4,0,0.9-0.3,1.1s-0.6-0.7-0.2-0.6"/>
	<path class="st2" d="M573.2,496.9c6.6,20.1,9.2,41.5,7.7,62.6c-1.6-3.1-4.2-5.8-7.3-7.4c-0.6-0.3-1.2-0.6-1.8-0.5
		c-1.4,0.3-1.6,2.6-0.4,3.5c1.2,0.9,2.9,0.5,4.1-0.4c2.7-2,2.9-6.6,0.4-8.9c-1.5,1.4-1.5,4.2,0,5.6"/>
	<path class="st2" d="M547.4,538.9c-0.8,3.5,0.4,7.4,3,9.9c1.2,1.1,3.1,1.9,4.3,0.9c0.8-0.6,1-1.7,1.1-2.6c0.2-4.4-2.5-8.7-6.5-10.4
		c-0.9-0.4-2-0.6-2.9-0.1c-0.8,0.4-1.2,1.4-1.5,2.2c-0.7,1.8-1.4,3.8-0.7,5.6c0.7,1.8,3.5,2.7,4.5,1c0.5-0.9,0.4-2.1,1.1-2.7
		c1.1-0.9,2.7,0.1,3.7,1.1c17.6,17.7,33.7,37,47.9,57.5c-3-0.9-6.2-1.2-9.3-1c-0.5,0-1.1,0.1-1.5,0.5c-0.5,0.6-0.2,1.5,0.2,2.2
		c2.2,3.9,5.3,7.4,8.9,10c0.4,0.3,0.9,0.6,1.4,0.6c0.8-0.1,1.2-0.9,1.6-1.6c0.9-1.9,1.8-3.8,2.7-5.8c0.4-0.8,0.8-1.8,0.6-2.7
		c-0.4-1.7-3.1-2-4.1-0.6c-1,1.4-0.2,3.6,1.3,4.4"/>
	<path class="st2" d="M593,598.8c-1.7-2-3.4-4-5.1-5.9c1.7,1.8,3.4,3.7,5,5.5c-13.5-15.9-26.9-31.9-40.4-47.8
		c-0.2-0.2-0.4-0.5-0.3-0.8c0.1-0.3,0.6-0.4,0.6-0.1"/>
	<path class="st2" d="M574.1,504.7c2.9,16.3,4.7,32.7,5.2,49.2"/>
	<path class="st2" d="M577,554.8c0.7,6.8,1.9,13.6,3.6,20.2"/>
	<path class="st2" d="M582.9,592.5c2.3,12.1,7,48.5,9,60.7c-2.5-3.6-4.3-7.6-5.3-11.9c-2,0.9-3.8,2-5.4,3.4c1.3,1.1,2.8,2,4.5,2.5
		c1.3,0.4,2.8,0.7,4.1,0.1s2.1-2.3,1.3-3.5s-3.1-0.8-3,0.6c-1-3.1-2-6.1-3-9.2c-7,8.2-21.3,38-19.3,25.8c0.4-0.6,1.1-0.9,1.8-1"/>
	<path class="st2" d="M569.7,661.3c-0.6,0.6-1.1,1.2-1.7,1.7c4.3-7.2,8.2-14.7,11.6-22.4c2.5,10.9,4.3,21.9,5.4,33
		c0.7-10.1,2.5-20.2,5.5-29.9c8,7.9,15.5,16.3,22.4,25.2c-9.2-5.7-13.2-17.7-22.6-22.9"/>
	<path class="st2" d="M295.5,401.2c6.8,2.7,14.6,6.2,29.7,13.2c0.9,0.4,2,0.9,2.4,1.9c0.7,2-1.6,3.9-5.1,4.1
		c-15.6,1-36.3-3.3-57.8-10.9"/>
	<path class="st2" d="M268.4,412.3c-0.4,5.7-2.6,11.2-6.3,15.5"/>
	<path class="st2" d="M270.8,412.2c1.9,1,2.3,1.7,1.9,3.3c-1.4,5.7-2.8,11.5-4.2,17.2c-1.5-2.3-3.3-4.5-5.3-6.5
		c-0.4-0.4-1-0.9-1.6-0.9c-1,0-1.6,1.1-1.9,2c-1.3,3.3-2.6,6.9-1.7,10.4c0.9,3.5,4.9,6.4,8,4.7c1.5-2.7-1.7-6.5-4.6-5.5
		c0.7,36.2,0.6,72.3-0.2,108.5"/>
	<path class="st2" d="M258,446.9c-1.2,31.3-0.4,118.1-3,149.3"/>
	<g>
		<path class="st5" d="M231.3,240.1c0.9-3.4-0.6-7-2.2-10.1c-2.9-5.7-6.3-11.2-10.2-16.3c-1.6-2.1-3.2-4.1-5.2-5.7
			c-1.9-1.5-4.1-2.6-6.2-3.7c-2.8-1.4-5.6-2.8-8.7-3.4c-7.7-1.4-19-0.9-25.7,3.2c-3.1,1.9-6.2,3.8-9.4,5.7c-3.2,1.9-7,7.3-9.2,10.3
			c-6.1,8.5,0.1,19.4-6.5,27.6"/>
		<path class="st5" d="M151.8,229.7c-0.4,4.1-2,5.5-3,7.2s-1.7,4.8-1.9,6.8c-0.3,2.7-1.2,4.5-2.8,6.7c-0.9,1.2-2,2.2-3.1,3.1
			c-1.6,1.4-3.2,2.8-4.8,4.2c-6.1,5.4-8.8,10.7-16.6,13c-1.6,0.5-3.3,0.9-4.5,2c-1.2,1.2-1.3,3.5,0.2,4.3c0.7,0.3,1.5,0.3,2.1,0.7
			c1.8,1.2-0.1,3.8-1.9,5c-15.5,10.8-25.8,28.7-27.4,47.5"/>
		<path class="st5" d="M103,308.1c-14.4,22.5-28.8,45.2-38.5,70.1c-0.8,2-1.5,4.1-1,6.2c0.5,1.9,1.9,3.4,3.3,4.8
			c17.7,17.3,39.4,30.6,55.2,49.7c3.3,4,7.4,8.7,12.6,8c0.4,4.4,4.9,8,8.4,10.6c3.5,2.6,8.1,5.3,10.5,9c1.7,2.8,2.3,5,5.5,5.7
			c3.6,0.8,6.9-2.1,8.6-5.3"/>
		<path class="st5" d="M140.3,325.6c-14.7,12-20.3,32.4-35,44.4c-1.4,1.1-3,2.3-3.4,4.1c-0.4,1.7,0.5,3.5,1.4,5.1
			c7.1,12.9,14.5,26,25.7,35.7c3,2.6,6.3,4.9,9,7.9c2.3,2.5,4.2,5.4,7,7.3c6.1,4.2,14.3,2.6,21.6,3.6c4.3,0.6,8.6,2.1,12.3,4.4
			c1.2,1.5-0.2,3.9-2,4.4c-1.8,0.5-3.8-0.2-5.5-0.9c-3.1-1.2-3.5-1.5-6.6-2.7c4.8,1.9,4.4,2.2,9.6,2.1"/>
		<path class="st5" d="M178.4,441.5c0.9-0.6,2.4,1,3.1,1.7c0.7,0.8,0.8,2.1,0.2,2.9c-0.6,0.9-1.8,1.2-2.8,1.4
			c-2.5,0.6-5.1,0.5-7.5,1.8c0.6,1.8,5.5,3.3,6.4,0.7c0.3-1,1.5-1.6,2.5-1.7c1.1-0.1,2.1,0.9,2.3,2.1c0.2,1.1-0.2,2.2-0.6,3.3
			c-0.8,1.9-1.2,3.4-3.2,3.9c-1.4,0.4-3.6,0.5-5.1,0.2c-1.5-0.3-5-0.1-5.2,0.1c-0.2,0.2-0.1,0.5,0,0.8c0.2,0.7,2.3,2.5,2.9,2.1
			c0.4-0.2,2.3-2.7,3.4-2.7c1.1,0,2.1,1.1,1.9,2.2c-0.1,0.5-3.2,4.1-4.5,5.6c-0.3,0.3-0.6,0.7-1,0.8c-0.5,0.2-1.1-0.1-1.6-0.3
			c-2.9-1.3-5.7-2.5-8.6-3.8c-0.6,1-0.3,2.4,0.6,3c1,0.6,2.4,0.4,3.1-0.6"/>
		<path class="st5" d="M214.2,414.1c0.5-1.5,1-3,1.4-4.4c0.2-0.6,0.4-1.3,1-1.5c0.5-0.2,5.2-3.2,6.9-5.2c0.3-0.4,0.8-0.8,1.3-0.6
			c0.2,0.1,0.4,0.3,0.5,0.5c0.8,1.5,0.6,4.3-1.4,5.8"/>
		<path class="st5" d="M222.9,418.2c3.3-0.7,6.5,1.3,9.2,3.2c1.2,0.8,2.4,1.7,3.2,2.9s1.1,2.8,0.4,4.1c-0.4,0.8-5.3,9.2-6.5,11.7
			c-0.4,0.9-0.9,1.8-1.7,2.4c-0.7,0.4-1.6,0.5-2.2,0c-0.1-0.1-0.4,0-0.4,0.1c-0.2,0.6-0.9,1.1-1.6,1.3c-0.9,0.3-1.9,0.3-2.6,0.7
			c-0.6,0.4-1,1-1.6,1.4c-0.8,0.6-1.7,0.8-2.6,1c-1,0.2-2.1,0.5-3.1,0.2c-0.8-0.2-1.4-0.9-1.6-1.6c-0.1-0.3-0.4-0.4-0.6-0.2
			c-2.1,1.5-3.8,1.3-5.5-0.2"/>
		<path class="st5" d="M210.9,442.6c-1.3-2.8-1.2-6.1-2.4-8.9c-0.7-1.5-1.7-2.9-2.4-4.4s-1-3.4-0.3-4.9c0.1-0.3,0.3-0.6,0.6-0.7
			c0.4-0.2,0.9,0,1.2,0.2c7.8,4.2,8,14.5,9.6,14.6c1.3-5.1,2.2-6.1,0.8-8.5c-1.6-2.7-4.9-4.1-7-6.4c-0.2-0.2-0.4-0.5-0.5-0.8
			c-0.3-0.9,0.7-1.8,1.7-1.8c1,0,1.7,0.8,2.6,1.2c4.3,1.7,8.5,4.3,8.9,4.9c1.5,2.2,0.9,5.3,0.4,7.5"/>
		<path class="st5" d="M224.9,429c0.6-2.9-4.8-7.7-9.2-9.7c-1.1-1.8,3.1-2.8,5.4-1.6c2.3,1.2,4.1,3.1,6.2,4.7c1.4,1.1,3,2.1,3.5,3.8
			c0.5,1.6-0.9,5-1.7,6.5"/>
		<path class="st5" d="M223.8,242.3c0.8,6.8-0.3,11.3-3.2,16c-3,5-7.4,3.9-10,9.1c-1.8,3.6-1.8,7.9-3.8,11.3c-0.6,1-1.8,1.9-2.7,1.3
			c-0.6-0.3-0.6-1.2-1-1.6c-0.8-0.7-2.6-1.9-3.8-1.1"/>
		<path class="st5" d="M201.7,278.4c-1,1.4-2,2.7-3,4.1c-0.2,0.3-0.4,0.6-0.7,0.7c-0.3,0.1-0.7,0-1,0c-1.4-0.3-1.6-0.8-2.6-1.2
			c-0.1,0-0.2,0.1-0.1,0.1c1,0.7,1.7,1.6,1.9,1.9c-0.4,1.4-2.2,1.4-3.5,1.3c-0.3,1.3,0.5,3.7-1,4.5"/>
		<path class="st5" d="M227.6,236.9c0,1.8-1.3,3.3-2.8,4.2s-3.3,1.3-4.9,1.9c-3.3,1.2-6.2,3.3-9.4,4.6c-5.3,2.3-11.4,2.7-17,1.2
			c-1.5-0.4-2.9-1-4.5-1c-1.5,0-3.2,0.7-3.8,2"/>
		<path class="st5" d="M197.6,230.2c-4.9,3.9-9.3,8.8-11.3,14.7c-1.2,3.7-2.3,7.2-2.4,10.4c-0.2,6.6,4,13.1,2.4,19.6
			c-0.7,2.8-2.4,6-0.7,8.4c0.5,0.7,1.3,1.2,1.9,1.9c2.1,2.2,2.2,5.6,1.9,8.6c-0.3,3-0.9,6.1,0.1,9s4.4,5.2,7,3.7"/>
		<path class="st5" d="M176.5,233.7c-5.7,8-1.5,19.5-4.7,28.8c-1.2,3.5-3.3,7.5-1.1,10.4c0.6,0.8,1.4,1.3,1.8,2.1
			c2.2,3.8-3.8,7.6-3.8,12c0,4.1,5.3,6.3,6.4,10.3c1.1,4-2.5,7.7-3.8,11.6c-1.5,4.5,0.3,9.9,4.1,12.7"/>
		<path class="st5" d="M164,314.4c0.5,0.8-0.5,1.9-1.5,1.9c-1-0.1-1.7-0.9-2.3-1.7c-3.7-5.8-0.5-14.1-4.2-19.9
			c-1.6-2.5-4.3-4.1-6.6-6s-4.5-4.4-4.4-7.4c0.1-4.9,6.2-8.5,5.3-13.4c-1,1.6-2,3.3-3,4.9c-0.5,0.7-0.9,1.5-1.6,2
			c-0.8,0.6-1.9,0.9-2.9,1.1c-5.6,1.2-11.2,2.5-16.9,3.7c-2,0.5-4.6,1.6-4.4,3.7"/>
		<path class="st5" d="M148.6,297.2c-0.7-0.8-1.3-1.5-2-2.3c1.7,6.4,3.5,13.1,2.6,19.7c-1.2,8.7-7,16.1-13.2,22.4
			c-3,3.1-6.2,5.9-9.6,8.7"/>
		<path class="st5" d="M166.8,319.8c-0.3,12.8,0.5,21.4,2.8,34c0.7,3.7,2.9,11,2.6,14.3"/>
		<path class="st5" d="M171.1,315c2.5,1.1,4.3,8.3,5.3,12c0.8,3,0.8,6.4-1.1,9.8c-2.5,4.4-7,8.3-6.5,13.3"/>
		<path class="st5" d="M172.3,368.6c-2.3,5.5-8,10.2-13.4,13.7c-1.3,0.9-2.8,1.8-3.5,3.2c-0.5,1-0.5,2.2-0.6,3.4
			c-0.2,8.9-0.4,17.7-0.7,26.6"/>
		<path class="st5" d="M164.4,378.2c-0.4,7.1-3.6,13.5-5.4,20.3c-0.5,2-0.9,4-0.5,6c0.4,2,1.6,3.9,3.5,4.6"/>
		<path class="st5" d="M168.9,406.6c1.8-3.7,2.3-6.7,4.5-10.3c2.2-3.5,5.3-6.7,9.2-7.9c4.3-1.3,9.4,0.2,12.3,3.6"/>
		<path class="st5" d="M174.4,338.9c4.5,14.9,11.1,34.7,15.6,49.6c0.2,0.5,0.3-0.3-0.1,0"/>
		<path class="st5" d="M176.5,323.7c12.7,21.9,13.5,49,24.7,71.8c0.4-1.2,1.6-2.1,2.8-2.1c0.6,1.7,1.1,3.7,0.1,5.1
			c-1.1,1.4-4.1,0.7-3.6-1c1.1,4,1.2,8.3,0.2,12.4c-0.7,3.1-1.9,7,0.5,9.2"/>
		<path class="st5" d="M168.2,407.6c-2.9,7.9-10,7.9-13.9,7.9c-3.9,0-14.7-4.3-26.8-2.4"/>
		<path class="st5" d="M94,484.8"/>
		<path class="st5" d="M100.4,420.4c-7,5-11.4,10.8-13.6,17.4"/>
		<path class="st5" d="M130.9,456.8c-0.5-1.2-1.4-2.2-2.6-2.6c-1.2-0.4-2.7-0.1-3.4,1c-0.7,1.1-0.2,2.8,1.1,3.1
			c0.9,0.2,2-0.2,2.8-0.1c0.4,0.1,0.6-0.4,0.4-0.7c-0.7-1.1-2-1.8-3.3-1.6c0.6,2.6,1.9,5,3.6,7c1,1.2,0.4,2.6,1.6,4
			c0.6-0.3,1.4,0.2,1.7,0.8s0.3,1.3,0.4,2c0.3,2.3,1.4,4.4,3.1,6c0.6,0.6,1.3,1.1,1.8,1.8c0.4,0.6,0.6,1.4,0.8,2.1
			c0.7,2.4,2.3,4.5,3.8,6.5c0.9,1.1,1.8,2.3,3.3,2.7c0.7,0.2,1.5,0.1,2.1-0.4c1.4-1.2,0.5-3.3-0.8-4.4c-1.2-1-2.8-1.6-3.7-2.9
			s-0.8-3.6,0.8-3.9c0.4-0.1,0.9,0,1.4-0.1c0.6-0.2,1-0.8,1.4-1.3"/>
		<path class="st5" d="M132.9,459.4c2.5-1.6,5.1-2.8,7.9-3.6"/>
		<path class="st5" d="M175,435.3c14.2-7.1,28.3-14.4,42.4-21.8c25.1-13.2,49.9-26.9,74.7-40.6c7.1-3.9,14.2-7.8,20.4-13
			c1.6-1.3,3.1-4.1,1.4-5.2c-0.9,0.4-1.9,1-1.9,1.9c0,0.9,1.9,1.1,1.6,0.2"/>
		<path class="st5" d="M309.8,351.6c1.1-0.7,1.2-2.5,0.3-3.5c-0.9-1-2.5-1-3.7-0.4c-1.2,0.6-1.9,1.9-2.2,3.2
			c-0.2,0.9-0.2,1.8,0.4,2.6c0.5,0.7,1.6,1.1,2.3,0.5"/>
		<path class="st5" d="M310.6,355.7c0.1-0.4,0.3-0.8,0.4-1.2c-1.8,0.5-3.5,1.1-5.2,1.9c-0.9,0.4-1.8,1.2-1.4,2.1
			c0.3,0.5,1,0.7,1.4,1.1c0.9,0.9,0,2.5-0.9,3.4"/>
		<path class="st5" d="M310,354.1c8.6-1.7,16.7-6.1,22.9-12.3c1.1-1.2,2.8-2.5,4.2-1.7c0.4,0.2,0.7,0.6,1,0.9c1.1,1.3,2.2,2.6,3.3,4
			c3.4,4.1,7,8.5,7.5,13.7c0.2,1.4,0.1,2.8-0.4,4.1c-1.3,3.2-5,4.7-8.4,4.7c0.3,0.6,0.3,1.4,0,2.1c0.9-0.3,2,0.2,2.5,1
			c-1.2,2.4-3.2,4.4-5.6,5.6c0.3-1.6,0.3-3.2,0-4.8c0.7-0.2,1.5-0.4,2.2-0.6c-0.6-0.8-1.5-1.5-2.5-1.6c-0.8,2.2-3,3.8-5.4,3.8
			c1.8,0,3.3,1.7,3.2,3.5c-0.1,1.7-1.9,3.2-3.6,3c-1.6-0.4-2.8-2.2-2.4-3.9c0.9-0.2,1.8-0.6,2.6-1.2c-0.1-0.8-0.5-1.7-1.2-2.1
			c-1.4,1.9-3.6,3.1-5.9,3.4c-0.1,2.4,1.7,4.7,4,5.3c-1.6,1.4-3.7,2.3-5.8,2.5c-1.2-1.9-1.6-4.4-1.1-6.6c-5.1-1.9-10.5,0.9-15.2,3.7
			c-24.5,14.4-45.5,26.9-70,41.3"/>
		<path class="st5" d="M325.7,347.7c0.7-1.4,0.3-3.1-0.9-4.1c0.1,0.7,1.1,1,1.7,0.6c0.6-0.4,0.6-1.3,0.3-2s-1-1.1-1.6-1.4
			c-1.5-0.7-3.5-0.9-4.7,0.2c-1.3,1.1-0.9,3.7,0.8,3.9c0.6,0.1,1.2-0.1,1.7,0.1c1,0.4,0.8,1.8,0.5,2.9"/>
		<path class="st5" d="M319.9,351c-2.5-0.6-4.2-3.4-3.5-5.9c0.1-0.3,0.2-0.5,0.2-0.8c0-0.7-0.8-1.1-1.5-1.2
			c-1.3-0.2-2.8,0.4-3.4,1.7c-0.6,1.2-0.1,2.9,1.1,3.5c1,0.5,2.4,0.3,2.9,1.2c0.2,0.4,0.2,0.8,0.4,1.2c0.2,0.4,0.8,0.6,1,0.3"/>
		<path class="st5" d="M231.4,240.1c-1.3,8.1,1.5,16.7-0.9,24.6c-3,10-13.1,16.1-17.6,25.5c-2.2,4.6-2.9,9.7-3.6,14.8
			c-0.2,1.6-0.4,3.4,0.7,4.6c1.1,1.3,3.1,1.3,4.5,2.3c1.9,1.4,2,4.2,1.2,6.3c-0.8,2.1-2.4,3.9-3.6,5.9c-2.1,3.7-2.5,8.3-1.2,12.3
			c-4.2-2.5-6.5-7.8-5.6-12.7c0.2-1.1,0.6-2.2,0.3-3.3c-0.2-0.9-0.9-1.7-1.5-2.5c-3.7-4.9-4.1-12-1.2-17.4
			c-4.5,5.4-2.6,13.5-0.4,20.2c-3.3-2.5-6.1-5.7-8.2-9.3c0.2,3.6,0.5,7.2,0.7,10.8c0.1,2-0.4,4.7-2.4,4.7c-1.6-4.4-3.2-8.9-4.8-13.3
			c-2.2,3.8-4.4,7.6-6.5,11.4c-1.4-3-1.5-6.6-0.4-9.7"/>
		<path class="st5" d="M195.4,307.6c0.3-0.7,0.1-1.5-0.4-2c-1.6,2.6-3.1,5.1-5.3,7.2s-5,3.7-8,3.7"/>
		<path class="st5" d="M205.6,442.2c-2.8,5.9-0.2,11.6,2.4,13.7c1.8,1.5,4.2,2,6.2,3.3c3.9,2.5,5.5,8.6,2.4,12
			c-5.5,6.1-17-1.3-23.3,4c-3.3,2.7-3.4,7.6-3.8,11.8c-1.2,13.7-7.4,25.7-16.9,35.6c-3,3.1-17.4,10.5-32.7,6.4
			c-8-2.1-16.6-8.8-23.5-17.9c-3.4-4.5-6-9.4-9.5-13.8"/>
		<path class="st5" d="M173.5,485.7c-1.8,1.4-3.4,3.3-3.8,5.5s0.4,4.9,2.5,5.9c1.5,0.7,3.4,0.4,4.9-0.5c1.4-0.9,2.5-2.3,3.4-3.8
			c0.5-0.8,0.9-1.7,0.5-2.5c-0.3-0.7-1.2-1-2-1.3c-0.6-0.2-1.3-0.4-1.9-0.6"/>
		<path class="st5" d="M175.3,489c-0.5,0-0.8,0.5-1,1c-0.5,1.5-0.8,3.7,0.6,4.4c0.9,0.4,2,0,2.5-0.8c0.8-1.2,0.7-2.7,0.5-4.1
			c-0.7,0.4-1.5,0.8-2.3,0.8s-1.7-0.6-1.7-1.4c0.5,0.8,1.7,0.9,2.5,0.4c0.8-0.5,1.3-1.4,1.7-2.3l2.5-5c0.2-0.4,0.7-0.4,1-0.1
			c0.5,0.6,1.5,0.9,2.2,0.4c1.1-0.8,0.7-2.9-0.6-3.2c-1.5-0.2-2.5,1-2.4,2.3"/>
		<path class="st5" d="M99.6,502.4c-1.3-0.5-12.8-33.5-21.8-102.7c1.9,0.4,9,50.8,23.4,89.4c0.7,1.9,2.6,3.2,3.2,5.2
			c0.5,1.5,0.8,3.1,0.4,4.6c-0.2,0.9,2.9,3.9,2.4,4.7c-3.3,5.5-10.3,8.8-13.7,14.2c1-0.3,2.1,0.2,2.7,1.1c0.6,0.9,0.6,2,0.3,3
			c-0.2,0.7-0.6,1.4-0.8,2.2c-0.1,0.8,0.2,1.7,0.9,1.9c0.8,0.2,1.5-0.4,2.1-1.1c3.9-4.3,7.9-9,8.9-14.7c0.9-5.2-0.9-10.5-2.9-15.4"
			/>
		<path class="st5" d="M108.3,508.3c8.4,13.9,24.9,26.8,41.8,25.7c5-0.3,11.1-1.9,15.4-4.5c12.6-7.6,22.9-27.7,23.9-42.4"/>
		<path class="st5" d="M171,524.9c6.8,9.1,11.6,19.6,14.2,30.6"/>
		<path class="st5" d="M86.8,532.1c5.7,12.7,11,25.5,14.4,39c6.7,1.7,27.2-0.1,34.4-1.3"/>
		<path class="st5" d="M85.3,407.9c0.2,17.9-2,35.8-6.7,53.1c-3.2,11.7-7.4,23.5-5.8,35.5c0.9,6.6,3.7,12.9,6.4,19
			c0.6,1.3,1.2,2.6,1.8,3.9"/>
		<path class="st5" d="M107,571.5c1.7,2.5,4.6,15.7,6.9,17.8"/>
		<path class="st5" d="M120.5,572.3c-0.7,0.1-1.2-0.7-0.5-0.3c4,2.3,17.4,19.4,20.3,23"/>
		<path class="st5" d="M184.1,554.3c-2.6,0.9-4.4,3-6.8,4.4c-5.6,3.3-14.9,6.9-27.3,9.1"/>
		<path class="st5" d="M182.6,563c-0.6-0.4-1-1.2-0.8-1.9c3.2,5.3,6.1,10.7,8.7,16.2c0.5,1,7.3,17.7,7,18.8"/>
	</g>
	<g>
		<path class="st2" d="M640.7,212.5c-3.5,0.2-5.6,3.8-7.1,6.9c-4.4,9.2-8.8,18.7-8.7,28.9c0.1,6.1,1.8,12.1,1.6,18.2
			c-0.1,2.2-0.3,4.5,0.6,6.4c0.5,1.1,1.4,2,1.8,3.1c1.5,4.2-4,9-1.8,12.9c0.8,1.4,2.5,2.2,3.2,3.7c1.4,2.8-1.4,6-1,9
			c0.4,2.6,3,4.4,3.8,6.9c1,3.3-1.3,6.8-1.1,10.3c0.1,2.8,1.9,5.3,2.7,8c0.8,2.9,0.4,6.1,0.9,9.1c0.4,2.7,1.6,5.3,2.4,7.9
			c1.7,5.4,2.1,11.2,1.3,16.8c1.4,0.6,3.1,0.2,4.1-0.9c0.3,1.1,1,2,1.9,2.6c0.4-0.8,0.8-1.6,1.2-2.4"/>
		<path class="st2" d="M651.7,356.2c2.7,0.5,5.3-1.8,5.9-4.5c0.6-2.7-0.2-5.4-1.3-7.9c-1.1-2.5-2.5-4.9-2.9-7.6
			c0,0.4-0.1,0.7-0.1,1.1"/>
		<path class="st2" d="M657.5,338.2c2.5,4.5,4.1,9.6,4.6,14.8c2.7-1,4.4-4,3.9-6.8"/>
		<path class="st2" d="M639.7,235.4c-3,7.7-3.1,16.5-0.2,24.3c-0.5-3.1-2.3-6-4.9-7.8c1.8,10.8,8.7,20,15.4,28.7
			c-2.8-1.9-5.7-3.9-8.5-5.8c0.2,5.9,2,11.7,5.1,16.7c-0.9-3.6-1.1-7.3-0.6-11c5,5.6,10.7,8.5,17.7,11.5c1,0.4,5.1,1.3,7.7,0.8
			c4.6-0.8,9-5.2,12.8-10.5"/>
		<path class="st2" d="M653.1,265.5c1,2.8,2.6,9.3,3.1,9.8c0.6,0.6,1.7,0.5,2.4,0"/>
		<path class="st3" d="M668.3,278.8c-0.5,0.1-4.1,3.4-5.6,3c-1.7-0.4-3-1-4.3,0.3c1.4-0.9,2-1.6,3.4-2.4c0.5-0.3,0.9,0.3,1.4,0
			c0.6-0.3,1.1-1.3,1.7-1.6c3.1-1.5,4.5-2.1,7.8-3.3c0.5-0.2,1-0.4,1.2-0.9c0.2-0.5-0.2-1.2-0.7-1c-0.5,0.6-1.2,1.5-0.7,2.1"/>
		<path class="st2" d="M638.8,222.6c-2.2,4-0.4,9,2,12.8c3.7,5.8,8.9,10.6,14.9,13.9c-2.2-2.1-3.9-4.8-4.7-7.7
			c5.8,2.2,12.4,2.5,18.4,0.8c-4.6-4-8.7-8.6-12.2-13.6c6.7,1.6,10.1,8.8,13.4,14.8c3.2,5.8,7.1,11.1,11.7,15.9
			c1.2,1.2,2.4,2.5,3,4.1c0.5,1.3,0.6,2.7,0.8,4c0.5,2.6,1.7,5,3,7.4c2.3,4.5,4.7,8.9,7,13.4"/>
		<path class="st2" d="M644.3,211.2c-0.5,3.1-1,6.3-1.5,9.4c-1.6-4.4-0.6-9.6,2.4-13.2s8-3.7,12.6-4.5c7.4-1.2,12.1,2.7,17.2,4.6
			c3.5,1.3,7.5,1.6,10.6,3.8c1.3,0.9,2.3,2,3.3,3.2c5.4,6.1,8.4,14.7,13.9,20.8c4.7,5.3,9.4,10.6,13,16.6"/>
		<path class="st2" d="M729.3,271c2.5,6.7,10.5,9.2,16.6,13c6.6,4,11.8,10.1,14.7,17.3c-2.9-2.3-6-4.3-9.4-5.8
			c1.1,2.2,2.3,4.3,3.4,6.5c-2.7-0.4-4-4.4-6.7-4.4c-0.8,0-1.6,0.3-2.4,0.4c-2.6,0.1-4-2.8-5.3-5.1c-2.5-4.5-7.1-7.8-12.2-8.8
			c-0.9,6.9,6.4,11.8,9.3,18.1c1.9,4.2,1.9,9,1.6,13.7c0,1-1.7,0.5-2.3-0.3c-3.7-4.6-7.5-9.2-11.2-13.9c-0.1,1-0.2,2-0.3,3
			c-1.6-1.5-3.4-2.9-5.2-4.1c-0.8-0.5-1.6-1-2.5-0.7c-1.1,0.3-1.5,1.6-1.6,2.8c-0.5,5.7,2.9,11,6.8,15.2c1.2,1.3,2.4,2.6,3,4.2
			c0.5,1.6,0.1,3.8-1.5,4.5c-5.2-6.1-10.4-12.1-15.6-18.2c0.2,1.8,0.4,3.5,0.6,5.3c-1.9,5-5.7,9.2-10.5,11.6
			c-1.8-2.9-2.5-6.5-1.9-9.8"/>
		<path class="st2" d="M694.9,287.1c8.4-10.8,16.8-21.6,23.3-33.6c1.7-3.1,3.3-6.4,5.9-8.7c0.5-0.5,1.7-0.3,1.4,0.2"/>
		<path class="st2" d="M725.6,243.6c2.2,1,3.7,3.1,4.5,5.3s1,4.7,1.3,7c0.1,0.8,0.1,1.6,0,2.3c-0.1,0.9-0.5,1.7-0.9,2.4
			c-1,2.1-2,4.1-3,6.2c-3.1-5.4-0.5-12.2-0.9-18.4c-0.1-1.1-0.3-2.3-1.2-2.9c-0.2,0.4-0.3,0.8-0.5,1.1"/>
		<path class="st2" d="M727.3,264.5c0.8,2.8-1.1,5.6-2.8,7.9c0-1.2-0.1-2.5-0.1-3.7c0-0.4-0.1-0.8-0.5-0.9c-0.3,0-0.5,0.1-0.7,0.3
			c-1,1-2,2.4-1.3,3.6c0.6,1.1,2.2,1.2,3.2,0.5s1.6-1.8,2-2.9c0.1-0.3,0.3-0.7,0.1-1c-0.2-0.3-0.7-0.4-0.8-0.1"/>
		<path class="st2" d="M722.4,278.7c0.3-0.9,0.5-1.8,0.4-2.7c-1.9-0.5-4,0.1-5.3,1.5c-0.7,0.7-1.1,2-0.3,2.6
			c0.3,0.2,0.7,0.3,1.1,0.3c2.8,0.1,5.8,0.2,8.2-1.3c0.9-0.5,1.6-1.3,1.8-2.3c0.2-1-0.3-2.2-1.3-2.4c-0.6-0.1-1.3,0.1-1.9,0.4
			c-1.8,0.8-3.6,1.6-5.5,2.4"/>
		<path class="st2" d="M714.1,288c0-1.1-1.7-1.5-2.6-0.8c-0.9,0.7-1,2-1,3.1c0.1,1.3,0.3,2.6,1.2,3.5c0.8,0.9,2.4,1.3,3.4,0.6
			c0.5-0.4,0.8-1.1,1-1.7c0.4-1.6,0.3-3.3-0.3-4.8c-0.2-0.5-0.5-1-1-1.2c-0.5-0.2-1.2-0.1-1.4,0.4"/>
		<path class="st2" d="M715.9,280.7c0.8-1.2,1-2.6,0.7-4c-4.5,4.8-4.1,13.8-10.2,16.4c-0.7,0.3-1.5,0.5-2.1,0.9
			c-1.6,1-2.3,3-2.8,4.8c-3.8,13.8-7.6,27.5-11.4,41.3"/>
		<path class="st2" d="M694,288.9c-4.7,15.2-8.7,28.9-12.2,44.4"/>
		<path class="st2" d="M692,334.5c1.8,2.3,3.4,4.9,4.6,7.6"/>
		<path class="st2" d="M693.9,328.9c2.3,4.1,5.8,6.8,10.4,8.2c0.4,0.1,0.6,0.5,0.9,0.8c0.2,0.3,0.6,0.4,0.6,0.8
			c0.6,5.6-1.3,10.7,1.8,15.4"/>
		<path class="st2" d="M695.7,342.3c-4.3,0.2-8.1-2.7-11.5-5.4c-2.1-1.7-4.4-4-3.9-6.6c-1.4-1.6-4.3-1.1-5.6,0.5s-1.3,4.1-0.5,6.1
			c0.8,2,2.4,3.5,4,5c2,1.8,4,3.4,6.2,4.9c-3-2-5.7-4.4-8-7.2c-1.2-1.5-3-3.3-4.8-2.5c-1.9,1.8-1.9,4.9-0.7,7.2
			c1.2,2.3,3.4,3.8,5.6,5.2c2.2,1.3,4.5,2.6,6.3,4.4c-5.3-2.8-9.9-6.8-13.4-11.7c-1.4,2.7-0.5,6.2,1.4,8.6c1.9,2.4,4.6,4,7.3,5.5
			c-1.9-1.2-3.7-2.4-5.6-3.6"/>
		<path class="st2" d="M669.5,340.5c-1.7-1.4-3.7-2.2-5.9-2.3c0.5,5.9,4.4,11,8.5,15.2c6.3,6.5,5.2,4.9,12.6,10.2
			c2.3,1.6,4.7,3.3,7.4,4.1c2.6,0.8,5.3,1,8,1.5c4,0.8,7.8,2.6,11,5.2"/>
		<path class="st2" d="M707,371.8c16.8,11.4,38.9,22.4,59.1,24.8c0.6,0.1,1.2,0.1,1.7-0.2c0.5-0.3,0.5-1.1,0.8-1.7
			c5.1-7.9,4.9-19,3.6-29.4c-0.8-5.9-2.2-15.5-3-21.5c-0.5-3.5-4.6-5.2-6.3-8.2c-3.5-6-11.6-8.3-18.2-6.1s-11.4,8.2-13.4,14.8"/>
		<path class="st2" d="M734.2,350.6c1.5,4.6,2.7,7.5,4.1,12.9"/>
		<path class="st2" d="M759.8,369.1c-3.8-4.8-10.8-5.7-16.8-5c-6.1,0.6-12.3,0.4-18.3-1c-5.8-1.3-10.1-3.6-15.8-8.5"/>
		<path class="st2" d="M760.4,301.8c2.1,3.9,4.3,7.8,5.7,12.1c2.3,7,2.3,14.5,2.3,21.8c0,1.8,0,3.6-0.4,5.4"/>
		<path class="st2" d="M729.8,345.3c-3.1-2.2-4.1-6.3-4.2-10.1c0-3.8-0.4-2.2-0.9-5.9c-2.1,10.7,7.1,15.7,9.1,21"/>
		<path class="st2" d="M770.3,392.1c2.3,23.3,0.7,19.4-4.6,29.9c-5.9-5.3-13.8-7.5-21.4-9.6c-3.9-1.1-7.8-2.1-11.8-3.2
			c-11.4-3.1-23-6.2-34.8-5.8"/>
		<path class="st2" d="M672.7,293.2c3.4,4.8,6.7,9.6,10.1,14.5c0.9,1.3,1.9,3.2,0.9,4.5"/>
		<path class="st2" d="M679.3,305.1c-0.8,1.1-1.6,2.2-2.5,3.3c-0.7,1-1.5,2-1.8,3.1c-0.4,1.2-0.2,2.6,0.6,3.4
			c0.6,0.6,1.4,0.9,2.3,1.1c2,0.5,4.1,0.7,6.1,0.7"/>
		<path class="st2" d="M676.7,301.4c-1,1.6-2.2,3-3.6,4.2c0.9,0.4,2.1,0.2,2.8-0.6"/>
		<path class="st2" d="M659.9,353.9c-0.4,5.4-0.9,10.7-1.3,16.1c-0.3,3.3-0.5,6.7,0.8,9.8c0.9,2,2.4,3.7,3.6,5.5
			c1.2,1.8,2.3,4,1.9,6.2"/>
		<path class="st2" d="M662.7,386.4c-1.5,6.4-4.5,12.4-7.6,18.2c-4.1,8-8.5,16.2-15.5,21.8c-2.7,2.2-5.7,3.9-8.2,6.2
			c-2.5,2.3-4.6,5.5-4.6,8.9c0,3.9,2.6,7.3,5.2,10.3c0.6,0.7,1.2,1.4,2,1.6c0.8,0.2,1.7,0,2.4-0.3c3.2-1.1,6.4-2.1,9.6-3.2
			c1.4-0.5,2.8-1,3.8-2c1-1,1.5-2.8,0.6-4c-2-0.5-7.2,2.3-10.6,3.2c-4.5,1.2-5.7-3.6-5.9-8.3c1,0.5,1.9,1,2.9,1.5"/>
		<path class="st2" d="M641.1,431.9c-3.1,1-5.4,4.3-5.2,7.5c0.1,0.9,0.3,1.9,1.2,2.4c0.8,0.5,2.1-0.1,2-1c-1,0.6-1.1,2.2-0.3,3.1
			s2.1,1,3.3,0.7s2.1-1,3-1.8c1.8-1.6,3.5-3.3,5-5.2"/>
		<path class="st2" d="M638.9,432.4c0.8,1.1,1.1,2.6,0.9,3.9c-0.4-0.1-1.7,3.4-2.6,4.7"/>
		<path class="st2" d="M645.6,424.7c2.4,0.1,4.3,2.2,4.9,4.6c0.6,2.3,0.1,4.7-0.3,7.1"/>
		<path class="st2" d="M637.4,454.4c1,2.4,4.3,2.7,6.9,2.5c2.6-0.2,5.2-0.3,7.8-0.5c0.7,0,1.5-0.3,1.4-1c-0.5-3-6.9-2.1-10.3-3.2"/>
		<path class="st2" d="M640.5,456.8c1.4,1.6,2.7,3.1,4.1,4.7c0.3,0.3,0.6,0.7,1,0.7c0.3,0,0.6-0.2,0.8-0.5c1.3-1.4,0.9-3.9-0.7-5"/>
		<path class="st2" d="M651.4,442.3c0.8-7.5,3.8-14.5,6.5-21.6c7.7-19.8,13.5-40.3,17.4-61.2"/>
		<path class="st2" d="M674.6,359.1"/>
		<path class="st2" d="M684.6,365.3c-2.1,8.9-4.9,17.7-8.4,26.2c-0.2,0.4-0.3,0.8-0.2,1.2c0.2,0.5,0.7,0.7,1.2,0.9
			c0.7,0.3,1.4,0.5,2.1,0.3s1.3-0.9,1-1.6"/>
		<path class="st2" d="M683.2,378.2c3.3,1,6.6,2,9.9,3c-3.7,8.4-5.6,17.6-5.6,26.7c1.8-1,4.1-0.9,5.8,0.2c-0.3,1.2-1.1,2.2-2.1,2.8
			c-1.6-2.4-5.5-2.8-7.5-0.8c1.1,12.2-1.8,24.3-4.7,36.2c-0.8,3.2-1.6,6.5-3.1,9.4c-0.9,1.7-3.7,7.1-3.7,10.3"/>
		<path class="st2" d="M684.8,412.9c-6.4,0.6-13-1.7-17.7-6.1c-6,17.3-10.6,35.2-13.6,53.3c-1.1,6.7-2.1,13.8-6.3,19.2"/>
		<path class="st2" d="M691.6,416.6c-0.9-0.5-1.7-1-2.6-1.6c6.3,2,13.1,0.6,19.4-1.2c6.3-1.9,12.6-4.3,19.2-4.2"/>
		<path class="st2" d="M766.7,420.4c4.8,19.7,8.3,28.2,6.9,48.4"/>
		<path class="st2" d="M672.1,465.9c-0.8,17.3-6.3,35.4-13.8,52.5c-0.3,0.7-0.6,1.4-1.1,2c-1.9,1.9-5,0.6-7.3-0.7
			c-1.4,5-2.8,10-4.1,15c-0.4,1.5-2,3.4-3.1,2.2c1.1-7.6,3.1-15,6-22.1c0.2,1.7,0.6,3.4,1.2,5c1.3-0.9,1.8-2.7,1.2-4.2
			c-1.4-0.4-2.9,1.3-2.3,2.6"/>
		<path class="st2" d="M645.4,532.5c-1.3,5.4-4.5,10.3-8.8,13.8c3.2-2.4,5.4-5.9,6.4-9.7"/>
		<path class="st2" d="M643.2,460.6c-2,4.5-3.1,7.4-3.9,12.3c-0.8,4.9-0.1,10.2,2.8,14.2c1.2-1.4,1.8-3.2,1.8-5
			c-0.6,0.6-1.2,1.3-1.8,1.9c0.6-1.6,1.6-3,2.9-4.1c1.5,1.8,1.2,4.6,0.3,6.7s-2.4,6.8-3.2,9c-0.9,2.4-3.6,11-4.3,14.2
			c-0.6,3.2-0.1,7,2.5,9c2.4,1.9,6,1.7,8.3,3.7"/>
		<path class="st2" d="M660.8,512.7c-0.9,17.5-1.4,35-1.6,52.5"/>
		<path class="st2" d="M694.4,485.5c3-4.6,10.6-2.2,14.9-5.6c-1.8-2.8-6-3.2-8.8-1.5c-2.8,1.7-4.4,4.9-5.1,8.2
			c-0.7,3.2-0.6,6.6-0.9,9.9c-0.6,5.6-2.3,11.1-4.1,16.4c-6.1,18.9-12.3,37.8-18.4,56.7c-1.7,5.1-3.3,10.3-3.6,15.6
			c-0.3,5.8,1.2,11.6,2.8,17.2c2.4,8,5.1,15.9,8.3,23.6"/>
		<path class="st2" d="M774.2,468.5c-0.2,18.2-5.2,23.3-13.8,45c-1.5,3.9-4.2,14.5-5.4,18.5c-13.3,45.2-3,19.2-3.9,21.6"/>
		<path class="st2" d="M708,479.3c1.1-1.4-1.4-3-1.4-4.8c0-1.2,1.2-2,2.3-2.5c8-4,17.1-5.8,26-5c-2.9-0.3-5.8,0.4-8.7,1.1
			c-8.5,2.1-17.5,4.4-23.9,10.4c-0.1-0.9-0.9-1.8-1.8-1.9c-0.3,0.5-0.6,1.1-0.9,1.6"/>
	</g>
	<path class="st2" d="M396.5,318.5c-4.1,5-4.8,11.8-5.2,18.3c-0.1,1.6-0.2,3.2,0.4,4.7c0.6,1.4,1.8,2.5,2,4c0.3,2.1-1.4,4.2-1,6.3
		c0.2,1.3,1.2,2.3,2,3.3c4.5,5.9,4.5,14.9,10.3,19.4c3.6,2.8,8.9,3,13.1,1.1c2.4-1.1,4.5-2.8,6.3-4.8"/>
	<path class="st5" d="M105.6,496.5c-6.1,5.5-10.5,9.5-16.8,17.1c-6.5,7.9-10.3,18.9-10.6,25.6c-0.8,17.2,3.8,29,13.7,43.1
		c10.1,14.5,32.2,24.1,51.9,28.2"/>
	<path class="st5" d="M108.3,499.8c-2.6,2.6-10.9,9-15.7,15c-6.3,7.8-10.3,18.9-10.6,25.6c-0.8,17.2,2.8,28.4,17.1,46"/>
	<path class="st2" d="M408.4,317c-0.2-0.7-1.5-1.3-1.9-0.7c-1.7,2.7-3-0.6-3.2,0.1c-0.8,4.5-3.8,4.2-5.9,2.6c-0.5-0.3-1-0.8-1.6-0.7
		c-0.4,0.1-0.9,0.3-1,0.7c-0.2,1.4-5.1-0.1-2.1,4.1"/>
	<line class="st5" x1="208.6" y1="438.7" x2="199" y2="443.7"/>
	<path class="st2" d="M418.6,377.4c2.9,4.5,2,7.3,2.6,12.6"/>
	<path class="st2" d="M520.7,401.9c5.1-4.7,12.4-6.8,19.3-5.6c-0.5,2.5-3,4.3-5.5,4.1"/>
	<path class="st2" d="M481,425.4c4.6-0.5,9.2,0.4,13.5,2.5c1.3,0.7,2.7,1.5,3.6,2.8c1,1.3,1.5,3.2,1.1,4.8"/>
</g>
<path class="st0" d="M162.8,211.1l2.6-1.1c6.9-5.3,12.7-8,20.8-9.4v-14.3h17.9v-28.3h-17.9V95.7h20.4V66.4h-47.9v148.2
	C160,213.3,161.3,212.2,162.8,211.1z"/>
<path class="st0" d="M267.7,80c-5.3-9.1-12.4-13.6-21.4-13.6h-34.7v140.5c1.3,0.9,2.6,2,4,3.1c8.2,6.3,17.5,29,16,48
	c-0.1,1.1,0,2.2-0.5,3.2c-0.7,1.2-1.3,6.1-19.5,30.9v4.8h34.9c9,0,16.1-4.6,21.4-13.9c4.8-8.3,7.2-18.9,7.2-31.6V111.9
	C275.1,98.9,272.6,88.3,267.7,80z M247.4,255.3c0,5.7-0.9,9.5-2.8,11.2c-0.8,0.7-2.6,1-5.5,1V95.7c2.6,0,4.5,0.4,5.5,1.3
	c1.9,1.8,2.8,5.4,2.8,10.9V255.3z"/>
<path class="st0" d="M656.8,203.3c7.4-1.2,12.1,2.7,17.2,4.6c3.5,1.3,7.5,1.6,10.6,3.8c1.3,0.9,2.3,2,3.3,3.2
	c5.4,6.1,8.4,14.7,13.9,20.8c1.1,1.3,4.1,4.9,8,9.6L693.6,66.4h-35.2l-12.6,139.8C648.9,204.1,652.9,203.9,656.8,203.3z M676,134.2
	l4.1,69.2h-7.9L676,134.2z"/>
<path class="st0" d="M626.1,296.9c-5.8-44.3,0.7-66.3,6.4-76.6V96H648V66.4h-58.5V96H605v200.9H626.1z"/>
</svg>
